<svg width="131" height="126" viewBox="0 0 131 126" fill="none" xmlns="http://www.w3.org/2000/svg">
<g filter="url(#filter0_d_5519_11228)">
<path d="M40 26.853L59.1091 20.9502C69.6627 17.6902 80.8609 23.6029 84.121 34.1565L90.0238 53.2656L51.8056 65.0712L40 26.853Z" fill="#2DAE7A"/>
<path d="M60.4261 38.7454C60.1945 37.7787 60.328 36.9281 60.8268 36.1935C61.3357 35.4557 62.11 34.9263 63.1495 34.6052C63.8629 34.3848 64.5188 34.3218 65.1173 34.416C65.7158 34.5102 66.2152 34.7355 66.6155 35.0919C67.0159 35.4483 67.3011 35.9017 67.4711 36.452C67.6662 37.0839 67.6649 37.676 67.4671 38.2283C67.2693 38.7806 66.9596 39.2056 66.5381 39.5033L66.5569 39.5644C67.2149 39.5621 67.7876 39.7536 68.275 40.1389C68.7593 40.5141 69.1179 41.0787 69.3509 41.8329C69.5367 42.4342 69.5643 43.0117 69.434 43.5655C69.3036 44.1193 69.0109 44.6173 68.5557 45.0593C68.0974 45.4911 67.4912 45.8235 66.737 46.0565C65.6363 46.3965 64.6427 46.3964 63.7562 46.0562C62.8767 45.7027 62.2477 45.0039 61.8694 43.9597L63.551 43.4403C63.7586 43.9678 64.1044 44.3466 64.5886 44.5767C65.0695 44.7965 65.6311 44.8072 66.2731 44.6089C66.8948 44.4169 67.3219 44.1007 67.5543 43.6605C67.7836 43.2101 67.8148 42.7149 67.6479 42.1747C67.4276 41.4613 67.0424 41.0277 66.4925 40.8738C65.9496 40.7065 65.2094 40.7678 64.2718 41.0574L63.8743 41.1802L63.4304 39.7432L63.8432 39.6157C64.6655 39.3505 65.2498 39.0193 65.596 38.6221C65.9524 38.2217 66.0424 37.7362 65.8661 37.1655C65.715 36.6763 65.4374 36.3378 65.0333 36.15C64.6261 35.952 64.132 35.9428 63.5511 36.1222C62.9804 36.2985 62.5827 36.5833 62.3581 36.9764C62.1303 37.3594 62.0519 37.7743 62.123 38.2212L60.4261 38.7454Z" fill="white"/>
</g>
<defs>
<filter id="filter0_d_5519_11228" x="0" y="-4.95251" width="130.024" height="130.024" filterUnits="userSpaceOnUse" color-interpolation-filters="sRGB">
<feFlood flood-opacity="0" result="BackgroundImageFix"/>
<feColorMatrix in="SourceAlpha" type="matrix" values="0 0 0 0 0 0 0 0 0 0 0 0 0 0 0 0 0 0 127 0" result="hardAlpha"/>
<feOffset dy="20"/>
<feGaussianBlur stdDeviation="20"/>
<feComposite in2="hardAlpha" operator="out"/>
<feColorMatrix type="matrix" values="0 0 0 0 0 0 0 0 0 0 0 0 0 0 0 0 0 0 0.06 0"/>
<feBlend mode="normal" in2="BackgroundImageFix" result="effect1_dropShadow_5519_11228"/>
<feBlend mode="normal" in="SourceGraphic" in2="effect1_dropShadow_5519_11228" result="shape"/>
</filter>
</defs>
</svg>
