<svg width="143" height="143" viewBox="0 0 143 143" fill="none" xmlns="http://www.w3.org/2000/svg">
<g opacity="0.4" filter="url(#filter0_f_5517_11150)">
<rect x="35" y="52.0085" width="51" height="51" rx="10" transform="rotate(-28.0833 35 52.0085)" fill="#2B2B2B" fill-opacity="0.3"/>
</g>
<g filter="url(#filter1_d_5517_11150)">
<g clip-path="url(#clip0_5517_11150)">
<rect x="37" y="41.0085" width="51" height="51" rx="10" transform="rotate(-28.0833 37 41.0085)" fill="#2DAE7A"/>
<g clip-path="url(#clip1_5517_11150)">
<path d="M67.7006 38.89L58.5839 43.7545C57.9794 44.077 57.5278 44.6264 57.3284 45.2819C57.1291 45.9374 57.1983 46.6453 57.5208 47.2498L67.2498 65.4832C67.5723 66.0877 68.1217 66.5393 68.7772 66.7386C69.4327 66.938 70.1406 66.8688 70.7451 66.5463L84.4201 59.2496C85.0246 58.927 85.4762 58.3776 85.6756 57.7221C85.8749 57.0666 85.8057 56.3587 85.4832 55.7543L78.1865 42.0792L67.7006 38.89Z" stroke="#F9F9FA" stroke-linecap="round" stroke-linejoin="round"/>
<path d="M67.7006 38.89L71.3489 45.7276L78.1865 42.0792" stroke="#F9F9FA" stroke-linecap="round" stroke-linejoin="round"/>
<path d="M76.6684 50.2094L67.5516 55.0739" stroke="#F9F9FA" stroke-linecap="round" stroke-linejoin="round"/>
<path d="M79.1006 54.7677L69.9839 59.6322" stroke="#F9F9FA" stroke-linecap="round" stroke-linejoin="round"/>
<path d="M67.3986 49.2994L66.259 49.9074L65.1194 50.5155" stroke="#F9F9FA" stroke-linecap="round" stroke-linejoin="round"/>
<g clip-path="url(#clip2_5517_11150)">
<rect width="11.2727" height="11.2727" transform="translate(77.2216 53.2416) rotate(-28.0833)" fill="#2DAE7A"/>
<path d="M86.7128 53.7674L89.1569 52.4633C89.1864 52.4475 89.2198 52.4405 89.2532 52.4431C89.2866 52.4456 89.3185 52.4576 89.3453 52.4777C89.3721 52.4977 89.3926 52.525 89.4045 52.5563C89.4163 52.5876 89.419 52.6217 89.4122 52.6544L88.9729 54.7735C88.9676 54.7987 88.9569 54.8225 88.9414 54.8432C88.926 54.8638 88.9061 54.8809 88.8834 54.893C88.8606 54.9052 88.8354 54.9122 88.8097 54.9135C88.7839 54.9148 88.7581 54.9105 88.7342 54.9008L86.7294 54.0859C86.6984 54.0733 86.6716 54.0521 86.6522 54.0249C86.6328 53.9976 86.6216 53.9654 86.6199 53.9319C86.6181 53.8985 86.6259 53.8653 86.6424 53.8361C86.6588 53.807 86.6833 53.7831 86.7128 53.7674ZM80.5386 58.6589L82.9827 57.3548C83.0122 57.339 83.0366 57.3152 83.0531 57.286C83.0695 57.2569 83.0773 57.2237 83.0756 57.1902C83.0739 57.1568 83.0626 57.1246 83.0432 57.0973C83.0238 57.07 82.997 57.0489 82.966 57.0363L80.9612 56.2214C80.9373 56.2117 80.9116 56.2073 80.8858 56.2087C80.86 56.21 80.8349 56.217 80.8121 56.2292C80.7893 56.2413 80.7695 56.2583 80.754 56.279C80.7386 56.2996 80.7278 56.3234 80.7226 56.3487L80.2832 58.4677C80.2764 58.5005 80.2791 58.5345 80.291 58.5658C80.3028 58.5971 80.3234 58.6244 80.3501 58.6445C80.3769 58.6645 80.4089 58.6766 80.4423 58.6791C80.4756 58.6817 80.509 58.6747 80.5386 58.6589Z" fill="#F9F9FA"/>
<path fill-rule="evenodd" clip-rule="evenodd" d="M83.1893 52.453C82.2246 52.9678 81.5963 53.8676 81.3948 54.8623C81.387 54.9089 81.3698 54.9534 81.3444 54.9932C81.319 55.0331 81.2859 55.0674 81.247 55.0941C81.208 55.1209 81.1641 55.1395 81.1179 55.1489C81.0716 55.1584 81.0239 55.1584 80.9776 55.1491C80.9313 55.1397 80.8874 55.1211 80.8484 55.0944C80.8094 55.0678 80.7762 55.0335 80.7508 54.9937C80.7253 54.954 80.7081 54.9095 80.7002 54.8629C80.6922 54.8164 80.6938 54.7687 80.7046 54.7227C80.8657 53.9288 81.2515 53.198 81.816 52.617C82.3805 52.036 83.0999 51.6294 83.8888 51.4455C84.6778 51.2616 85.5029 51.3081 86.2661 51.5796C87.0293 51.8511 87.6984 52.3361 88.194 52.9769L87.5618 53.3142C87.0438 52.6889 86.3257 52.2617 85.529 52.1047C84.7323 51.9478 83.9058 52.0708 83.1893 52.453ZM82.1335 57.8078C82.5579 58.3197 83.1184 58.7012 83.7504 58.9081C84.3823 59.1149 85.0599 59.1388 85.7048 58.9769C86.3498 58.815 86.9358 58.474 87.3951 57.9931C87.8544 57.5123 88.1683 56.9113 88.3005 56.2597C88.3084 56.2131 88.3255 56.1686 88.3509 56.1288C88.3763 56.089 88.4095 56.0546 88.4484 56.0279C88.4873 56.0011 88.5312 55.9825 88.5775 55.9731C88.6238 55.9636 88.6715 55.9636 88.7178 55.9729C88.764 55.9823 88.808 56.0009 88.8469 56.0276C88.8859 56.0543 88.9191 56.0885 88.9446 56.1283C88.97 56.168 88.9873 56.2125 88.9952 56.2591C89.0031 56.3057 89.0016 56.3533 88.9907 56.3993C88.8296 57.1932 88.4439 57.9241 87.8794 58.505C87.3149 59.086 86.5954 59.4926 85.8065 59.6765C85.0176 59.8604 84.1925 59.8139 83.4293 59.5424C82.6661 59.2709 81.9969 58.7859 81.5014 58.1451L82.1335 57.8078Z" fill="#F9F9FA"/>
</g>
</g>
</g>
</g>
<defs>
<filter id="filter0_f_5517_11150" x="30" y="23" width="79.004" height="79.004" filterUnits="userSpaceOnUse" color-interpolation-filters="sRGB">
<feFlood flood-opacity="0" result="BackgroundImageFix"/>
<feBlend mode="normal" in="SourceGraphic" in2="BackgroundImageFix" result="shape"/>
<feGaussianBlur stdDeviation="2.5" result="effect1_foregroundBlur_5517_11150"/>
</filter>
<filter id="filter1_d_5517_11150" x="-3" y="-3" width="149.004" height="149.004" filterUnits="userSpaceOnUse" color-interpolation-filters="sRGB">
<feFlood flood-opacity="0" result="BackgroundImageFix"/>
<feColorMatrix in="SourceAlpha" type="matrix" values="0 0 0 0 0 0 0 0 0 0 0 0 0 0 0 0 0 0 127 0" result="hardAlpha"/>
<feOffset dy="20"/>
<feGaussianBlur stdDeviation="20"/>
<feComposite in2="hardAlpha" operator="out"/>
<feColorMatrix type="matrix" values="0 0 0 0 0 0 0 0 0 0 0 0 0 0 0 0 0 0 0.06 0"/>
<feBlend mode="normal" in2="BackgroundImageFix" result="effect1_dropShadow_5517_11150"/>
<feBlend mode="normal" in="SourceGraphic" in2="effect1_dropShadow_5517_11150" result="shape"/>
</filter>
<clipPath id="clip0_5517_11150">
<rect x="37" y="41.0085" width="51" height="51" rx="10" transform="rotate(-28.0833 37 41.0085)" fill="white"/>
</clipPath>
<clipPath id="clip1_5517_11150">
<rect width="31" height="31" fill="white" transform="translate(50.5302 45.1237) rotate(-28.0833)"/>
</clipPath>
<clipPath id="clip2_5517_11150">
<rect width="11.2727" height="11.2727" fill="white" transform="translate(77.2216 53.2416) rotate(-28.0833)"/>
</clipPath>
</defs>
</svg>
