<svg width="203" height="497" viewBox="0 0 203 497" fill="none" xmlns="http://www.w3.org/2000/svg">
<path d="M20.4806 196.874L9.19825 147.455L14.0728 146.342L8.43164 121.633C6.57899 113.518 5.81039 105.521 6.00224 97.7527L1.00377 97.6293C1.43491 80.1729 6.4725 63.7561 14.9319 49.5595L19.2272 52.119C27.46 38.3027 39.1062 26.6949 52.9495 18.5077L50.4042 14.204C64.6286 5.79151 81.062 0.808113 98.5197 0.434559L98.6266 5.43341C106.395 5.26719 114.39 6.06217 122.499 7.94159L147.661 13.7737L148.79 8.90278L199.115 20.5669L197.987 25.4378L248.312 37.102L249.441 32.2311L299.766 43.8953L298.637 48.7662L348.962 60.4303L350.091 55.5594L400.416 67.2236L399.287 72.0945L424.45 77.9266C435.076 80.3893 444.93 84.5778 453.75 90.153L456.422 85.9266C475.5 97.986 489.985 116.213 497.425 137.521L492.705 139.169C496.145 149.02 498 159.566 498 170.473V198.789H503V255.421H498V312.052H503V368.684H498V397C498 403.351 497.378 409.552 496.192 415.546L501.097 416.516C498.501 429.636 493.34 441.832 486.157 452.562L482.002 449.78C475.064 460.142 466.142 469.064 455.78 476.002L458.562 480.157C447.832 487.34 435.636 492.501 422.516 495.097L421.546 490.192C415.552 491.378 409.351 492 403 492H373.718V497H315.154V492H256.589V497H198.025V492H168.743C157.807 492 147.236 490.135 137.365 486.679L135.712 491.398C114.358 483.922 96.1062 469.368 84.0641 450.213L88.2971 447.551C82.7306 438.697 78.5598 428.806 76.1258 418.145L70.4846 393.435L65.6101 394.548L54.3277 345.13L59.2023 344.017L47.9199 294.598L43.0453 295.711L31.763 246.292L36.6376 245.179L25.3552 195.761L20.4806 196.874Z" stroke="#6FCF97" stroke-width="10" stroke-miterlimit="2" stroke-dasharray="50 50"/>
</svg>
