<svg width="139" height="198" viewBox="0 0 139 198" fill="none" xmlns="http://www.w3.org/2000/svg">
<path opacity="0.5" d="M84.0262 49.3887C88.0019 48.2265 92.1671 50.5074 93.3293 54.4831L124.54 161.251C125.702 165.227 123.422 169.392 119.446 170.554L45.7194 192.106C41.7436 193.269 37.5785 190.988 36.4163 187.012L5.20539 80.2438C4.04318 76.2681 6.32401 72.1029 10.2998 70.9407L84.0262 49.3887Z" stroke="#F2994A" stroke-width="5"/>
<path opacity="0.5" d="M93.1228 5.20539C97.0985 4.04318 101.264 6.32401 102.426 10.2998L133.637 117.068C134.799 121.044 132.518 125.209 128.542 126.371L54.8159 147.923C50.8402 149.085 46.6751 146.804 45.5129 142.829L14.3019 36.0605C13.1397 32.0847 15.4206 27.9196 19.3963 26.7574L93.1228 5.20539Z" stroke="#F2994A" stroke-width="5"/>
</svg>
