<svg width="148" height="148" viewBox="0 0 148 148" fill="none" xmlns="http://www.w3.org/2000/svg">
<g opacity="0.4" filter="url(#filter0_f_5570_11034)">
<rect x="35" y="53.731" width="51" height="51" rx="10" transform="rotate(-28.0833 35 53.731)" fill="#2B2B2B" fill-opacity="0.3"/>
</g>
<g filter="url(#filter1_d_5570_11034)">
<g clip-path="url(#clip0_5570_11034)">
<rect x="37" y="42.731" width="54.6508" height="54.6508" rx="10" transform="rotate(-28.0833 37 42.731)" fill="#2E7987"/>
<g clip-path="url(#clip1_5570_11034)">
<path d="M81.1817 65.6469C78.441 67.5878 74.8836 68.5243 71.5635 67.71C71.2793 68.6498 70.8049 69.6188 70.2807 70.5176C70.0289 70.907 69.5077 71.065 69.1183 70.8132C68.7289 70.5614 68.5709 70.0402 68.8227 69.6508C69.3264 68.872 69.7101 68.0728 69.9737 67.253C68.1848 66.515 66.4986 65.1767 65.1051 63.2091C62.4676 59.4845 62.831 56.2727 64.4473 55.1281C65.5014 54.3816 67.2933 54.3789 69.0351 56.8385C71.374 60.1414 72.3428 63.1484 71.9501 66.1699C74.7901 66.9022 77.8263 66.1238 80.2157 64.4318C80.6373 64.1332 81.1175 64.2152 81.4161 64.6369C81.7147 65.0585 81.6034 65.3483 81.1817 65.6469ZM65.3928 56.4633C64.6901 56.9609 64.3209 59.1217 66.4608 62.1435C67.5557 63.6895 68.8526 64.7759 70.2316 65.3821C70.4514 63.0106 69.5909 60.4545 67.6003 57.6435C66.8538 56.5894 65.955 56.0652 65.3928 56.4633Z" fill="#F9F9FA"/>
<path d="M78.1548 37.0853C76.8959 36.4996 75.4847 36.4438 74.2315 36.9092C73.8304 37.0878 73.558 37.5972 73.7366 37.9983L74.7961 40.8355L72.2783 39.6641C72.1085 39.5733 71.7981 39.5821 71.5375 39.6611C71.277 39.7401 71.1159 39.9597 71.0749 40.1998C70.7 41.3094 70.7555 42.4308 71.1213 43.5434L75.8337 56.4558C76.2991 57.709 77.2856 58.8041 78.5445 59.3899C79.5136 59.8643 80.6145 59.9288 81.6861 59.8031L82.9037 63.1615C83.0822 63.5626 83.5916 63.835 83.9928 63.6564L84.2036 63.5071C84.4847 63.3081 84.6165 62.8982 84.558 62.5175L83.3902 59.2294L83.8118 58.9308C84.5146 58.4332 85.068 57.7247 85.5219 56.8757C86.1077 55.6167 86.1634 54.2055 85.6981 52.9523L83.9361 48.0802L82.1741 43.208C82.0453 42.8771 81.7759 42.6458 81.3455 42.634C81.0352 42.6428 80.6341 42.8213 80.5228 43.1112L78.8564 46.7181L78.233 44.9437L80.6461 39.8583C80.7574 39.5685 80.7487 39.2581 80.5994 39.0473C79.9319 38.2538 79.1239 37.5598 78.1548 37.0853ZM72.7551 43.0195C72.5766 42.6184 72.5181 42.2377 72.5298 41.8073L75.5571 43.2511L77.1113 47.5318L73.7942 45.9768L72.7551 43.0195ZM79.2415 57.8411C78.4423 57.4575 77.7543 56.784 77.4675 55.9319L74.6459 48.2225L77.963 49.7776L79.6167 54.1989L81.0421 58.1488C80.4712 58.2365 79.871 58.134 79.2415 57.8411ZM83.9237 53.5758C84.2105 54.4278 84.2368 55.3589 83.7829 56.2079C83.5603 56.7876 83.1181 57.2062 82.6262 57.5546L81.3793 54.0059L82.9344 50.6888L83.9237 53.5758ZM81.1724 45.8166L82.153 48.3932L80.5979 51.7103L79.6173 49.1337L81.1724 45.8166ZM77.2407 42.7975L77.1119 42.4666C77.1324 42.3466 77.0329 42.2061 76.9831 42.1358L75.5869 38.3762C76.1579 38.2885 76.8078 38.4613 77.3875 38.6839C77.897 38.9562 78.3361 39.2783 78.6347 39.7L77.2407 42.7975Z" fill="#F9F9FA"/>
</g>
</g>
</g>
<defs>
<filter id="filter0_f_5570_11034" x="30" y="24.7224" width="79.004" height="79.0039" filterUnits="userSpaceOnUse" color-interpolation-filters="sRGB">
<feFlood flood-opacity="0" result="BackgroundImageFix"/>
<feBlend mode="normal" in="SourceGraphic" in2="BackgroundImageFix" result="shape"/>
<feGaussianBlur stdDeviation="2.5" result="effect1_foregroundBlur_5570_11034"/>
</filter>
<filter id="filter1_d_5570_11034" x="-3" y="-2.99609" width="153.944" height="153.943" filterUnits="userSpaceOnUse" color-interpolation-filters="sRGB">
<feFlood flood-opacity="0" result="BackgroundImageFix"/>
<feColorMatrix in="SourceAlpha" type="matrix" values="0 0 0 0 0 0 0 0 0 0 0 0 0 0 0 0 0 0 127 0" result="hardAlpha"/>
<feOffset dy="20"/>
<feGaussianBlur stdDeviation="20"/>
<feComposite in2="hardAlpha" operator="out"/>
<feColorMatrix type="matrix" values="0 0 0 0 0 0 0 0 0 0 0 0 0 0 0 0 0 0 0.06 0"/>
<feBlend mode="normal" in2="BackgroundImageFix" result="effect1_dropShadow_5570_11034"/>
<feBlend mode="normal" in="SourceGraphic" in2="effect1_dropShadow_5570_11034" result="shape"/>
</filter>
<clipPath id="clip0_5570_11034">
<rect x="37" y="42.731" width="54.6508" height="54.6508" rx="10" transform="rotate(-28.0833 37 42.731)" fill="white"/>
</clipPath>
<clipPath id="clip1_5570_11034">
<rect width="31" height="31" fill="white" transform="translate(52.3646 50.2839) rotate(-35.3045)"/>
</clipPath>
</defs>
</svg>
